<svg aria-hidden="true" style="position:absolute;width:0;height:0;overflow:hidden" xmlns="http://www.w3.org/2000/svg">
  <defs>
    <symbol id="logo" viewBox="0 0 885.1 295.9">
      <path style="fill:var(--logo-color, #010101)" d="M283.4,89.4c0,1.8-1.5,3.2-3.2,3.2h-.4c-1.8,0-3.3-1.4-3.3-3.2v-4.1c0-.3-.2-1.1-.8-.4-4.9,5.7-11.7,9.1-18.9,9.1s-13.8-2.7-19.1-7.9c-5.4-5.4-7.9-11.7-7.9-19.2s2.6-13.8,7.9-19.1c5.2-5.4,11.7-7.8,19.1-7.8s13.3,2.5,18.4,8.7c.3.5,1.2.5,1.2-.3v-30.7c0-1.7,1.5-3.2,3.3-3.2h.4c1.7,0,3.2,1.5,3.2,3.2v71.8ZM256.8,46.5c-11.1,0-20.1,9.3-20.1,20.5s9,20.7,20.1,20.7,20.1-9.5,20.1-20.7-9-20.5-20.1-20.5Z"/>
      <path style="fill:var(--logo-color, #010101)" d="M342,65.9h-41c-1.5,0-1.8.4-1.7,2,.4,5.4,2.4,9.7,5.9,13.2,3.9,3.9,8.6,6.5,14.1,6.5s11.1-2.9,13.6-5.9c2.5-3,4-4.1,6.4-2.6,1.9,1.3,2,3.7.4,5.5-.4.5-.9,1-1.3,1.4-5.4,5.4-11.7,8-19.2,8s-13.8-2.7-19.2-7.9c-5.2-5.4-7.9-11.7-7.9-19.2s2.7-13.8,7.9-19.1c5.4-5.4,11.7-7.8,19.2-7.8s13.8,2.5,19.2,7.8c3.7,3.7,6,8.4,6.7,13.7.2,1.6-.2,4.3-3.2,4.3ZM336.7,57c-.8-1.4-1.8-2.8-3.3-4.2-4-4-8.7-6.3-14.1-6.3s-10.3,2.4-14.2,6.3c-1.7,1.7-2.9,3.3-3.7,4.7-.8,1.4-.2,1.5,1.5,1.5h33c2.2,0,1.6-1,1-2Z"/>
      <path style="fill:var(--logo-color, #010101)" d="M370.1,94c-8.8,0-14.2-4.2-17.9-10.6-.1-.2-1.4-3.3,1.5-4.8,3.5-1.8,5.1,2.2,6.1,3.5,2.2,3.1,5.2,5.5,10.3,5.5s8.8-4.7,9.1-8.9c.3-3.9-1.7-6.2-6.6-9.4-4.4-2.8-8.4-3.1-11.8-5.7-2.6-2-5.2-5-5.2-10.5s1.7-7.9,5-10.5c1.4-1.1,3-1.6,4.7-2.1,2.1-.5,4.7-.5,6-.2,4,1,8.7,3.4,10.3,6.3.7,1.4.5,3.2-1,4.3-2.5,1.9-4.7-1.2-6.2-2.5-1.1-1-1.8-1.9-5.1-1.9s-6.5,2.5-6.5,6.6,3.1,5,4.1,5.6c2.7,1.4,15.6,6.9,18.2,13.1,3.7,9.2-1.5,22.3-14.9,22.3Z"/>
      <path style="fill:var(--logo-color, #010101)" d="M398.5,44.7v44.7c0,1.8-1.5,3.3-3.3,3.3h-.2c-1.8,0-3.3-1.5-3.3-3.3v-44.7c0-1.8,1.5-3.3,3.3-3.3h.2c1.8,0,3.3,1.5,3.3,3.3Z"/>
      <path style="fill:var(--logo-color, #010101)" d="M461.9,44.7v40.6c0,7.3-2.6,13.5-7.8,18.7s-9.3,6.6-15.1,7.5c-1.9.3-4.5-.4-4.8-3.1-.3-3.4,2.4-4.3,4.2-4.4,4-.2,7.7-2,10.7-5s5.4-6.1,6-8.6c.6-2.4,0-6.2-.4-5.6-5,6.2-13,9.2-20.2,9.2-16.2,0-27.1-10.3-27.1-26.9s12.2-27.1,27.1-27.1,14.5,2.9,19.8,8.6c.1.1.9.5.9-1v-3c0-1.8,1.5-3.3,3.3-3.3h.3c1.7,0,3.2,1.5,3.2,3.3ZM455.1,67.2c0-11.2-9.4-20.7-20.7-20.7s-20.1,10-20.1,20.7,8.1,20.5,20.1,20.5,20.7-9.3,20.7-20.5Z"/>
      <path style="fill:var(--logo-color, #010101)" d="M516.4,61.3v28.1c0,1.8-1.5,3.3-3.3,3.3h-.2c-1.8,0-3.3-1.5-3.3-3.3v-27.6c0-10.6-8-15.2-15.4-15.2s-14.5,4.4-14.5,13.3v29.6c0,1.8-1.5,3.3-3.3,3.3h-.3c-1.8,0-3.3-1.5-3.3-3.3v-44.8c-.1-1.8,1.4-3.2,3.2-3.2h.4c1.6,0,3.2,1.2,3.2,3.2v.3c0,.5.5.6.9.3,3.6-4.1,9.5-5.1,13.7-5.1,9.7,0,22.3,4.6,22.3,21.2Z"/>
      <path style="fill:var(--logo-color, #010101)" d="M364.5,185.4c0,18-14.6,32.6-32.5,32.6s-32.5-14.6-32.5-32.6v-26.2h0v-2h0c0-6.2-5-11.3-11.3-11.3s-11.3,5.1-11.3,11.3h0v20.6c0,9.8.4,19.4,4.2,28.6,2.9,7.1,7.3,13.6,12.9,18.9,5.5,5.3,12.2,9.5,19.5,12.1,6,2.2,12.4,3.3,18.8,3.3,30.5,0,55.2-24.7,55.2-55.2h-22.7Z"/>
      <path style="fill:var(--logo-color, #010101)" d="M507.7,217.9c-18,0-32.5-14.6-32.5-32.6h-22.7c0,30.5,24.7,55.2,55.2,55.2s55.2-24.7,55.2-55.2h-22.7c0,18-14.6,32.6-32.5,32.6Z"/>
      <path style="fill:var(--logo-color, #010101)" d="M624.2,217.8c-18,0-32.5-14.6-32.5-32.6h-22.7c0,30.5,24.7,55.2,55.2,55.2s55.2-24.7,55.2-55.2h-22.7c0,18-14.6,32.6-32.5,32.6Z"/>
      <circle style="fill:var(--logo-color, #010101)" cx="288" cy="130.8" r="11.3"/>
      <circle style="fill:var(--logo-color, #010101)" cx="580.3" cy="130.8" r="11.3"/>
      <path style="fill:var(--logo-color, #010101)" d="M767.5,240.6v-55.4h-22.7c0,18-14.6,32.6-32.5,32.6s-32.5-14.6-32.5-32.6h-22.7c0,30.5,24.7,55.2,55.2,55.2s23.4-3.9,32.5-10.6v10.9c0,17.9-14.6,32.5-32.5,32.5s-26-8.8-30.5-21.2c0,0-1.2-3.6-1.2-3.6-1.5-4.5-5.7-7.7-10.7-7.7s-10.9,4.7-11.2,10.6v.2c0,.1,0,.3,0,.4,0,.6,0,1.1.1,1.6,0,.3,0,.5,0,.6,5,24.5,27.4,41.6,53.5,41.6s52.3-21.9,55-49.9c.1-.5.2-1,.2-1.5h0c0-.3,0-.5,0-.6v-3.2h0c0,0,0,0,0,0Z"/>
      <path style="fill:var(--logo-color, #010101)" d="M679.7,180.2c.6-17.5,14.9-31.4,32.5-31.4s31.9,14,32.5,31.4h22.7c-.6-30-25.1-54.1-55.2-54.1s-54.6,24.1-55.2,54.1h22.7Z"/>
      <path style="fill:var(--logo-color, #010101)" d="M885,180.1c0-1.6-.2-3.3-.4-4.9-.9-7.5-3.3-14.8-7.1-21.4s-8.7-12-14.6-16.5c-6-4.5-12.8-7.8-20.1-9.6-4.4-1.1-9-1.7-13.5-1.7-7.7,0-15.3,1.6-22.3,4.7s-13,7.4-18.1,12.8c-5.1,5.4-9.1,11.9-11.7,18.9-2.1,5.6-3.2,11.6-3.5,17.7,0,0,0,6.3,0,6.3.8,30,25.4,54.1,55.6,54.1s15.3-1.6,22.3-4.6,13-7.3,18.1-12.7,9.1-11.8,11.8-18.8c2.9-7.6,3.9-16.1,3.5-24.3h0ZM829.4,217.7c-7.6,0-15.1-2.7-20.9-7.5s-9.8-11.5-11.2-18.9c-1.6-8.4-.7-17.7,3.4-25.3,3.6-6.5,9.4-11.7,16.2-14.5,4-1.6,8.2-2.5,12.5-2.5,7.6,0,15.1,2.7,20.9,7.6s9.8,11.6,11.2,18.9c1.7,8.6.7,18.1-3.7,25.7-3.7,6.5-9.7,11.6-16.6,14.3-3.8,1.5-7.8,2.2-11.8,2.2h0Z"/>
      <path style="fill:var(--logo-color, #010101)" d="M591.7,180.2v-23.1h0c0-6.2-5-11.3-11.3-11.3s-11.3,5.1-11.3,11.3h0v23.1h22.7,0Z"/>
      <path style="fill:var(--logo-color, #010101)" d="M475,180.2c-.5-30-25-54.2-55.2-54.2s-54.7,24.2-55.2,54.2h22.7c.5-17.5,14.9-31.6,32.5-31.6s32,14,32.5,31.6h22.7Z"/>
      <path style="fill:var(--logo-color, #010101)" d="M562.9,104.8h0c0-.2,0-.5,0-.7v-.2c0-6.2-5-11.3-11.3-11.3s-11.3,5.1-11.3,11.3v.2c0,.2,0,.5,0,.7h0v31.8c-9.1-6.7-20.4-10.6-32.5-10.6s-11,.8-16.1,2.4c-2.8.9-14.9,4.8-24.9,15.8,5.4,6,9.6,13.2,12,21.2,5.6-9.9,16.8-16.7,29-16.7,17.6,0,32,14.1,32.5,31.6h22.7c0-.8,0-1.6,0-2.3h.1v-73.1h0Z"/>
      <path style="fill:var(--logo-color, #010101)" d="M274.9,206.4c-.7-1.8-1.4-3.6-1.9-5.4-5.4,10.4-16.3,17.5-28.9,17.5-18,0-32.6-14.6-32.6-32.6s0-43.3,0-64.9v-17.2h0c0-6.2-5.1-11.3-11.3-11.3s-11.3,5.1-11.3,11.3h0v74.5c0,9.8.4,19.4,4.2,28.6,2.9,7.1,7.3,13.6,12.9,18.9,5.6,5.3,12.2,9.5,19.4,12.1,6,2.2,12.4,3.3,18.8,3.3,16.3,0,30.1-6.1,40.2-17.4-4.4-4.8-7.1-11.3-9.5-17.3h0Z"/>
      <path style="fill:var(--logo-color, #010101)" d="M58.9,73c-19.1.2-34.6,15.8-34.6,34.9s15.4,34.7,34.6,34.9h0s0,0,.1,0v24.4c-19.2.1-34.7,15.7-34.7,34.9s15.6,34.9,35,34.9h28.1c6.7,0,12.1,5.5,12.1,12.2s-5.4,12.1-12.1,12.1h0c0,0-28.1,0-28.1,0C26.5,261.5,0,235,0,202.2s9.1-36.3,23.3-47.1C9.1,144.3,0,127.2,0,108c0-32.6,26.3-59.1,58.9-59.3v24.4Z"/>
      <path style="fill:var(--logo-color, #010101)" d="M63.8,142.8c18-1.4,32.2-16.4,32.2-34.8s-14.2-33.4-32.2-34.8v-24.5h78c.2,0,.5,0,.7,0,0,0,.1,0,.2,0,6.7,0,12.1,5.4,12.1,12.1s-5.4,12.1-12.1,12.1-.1,0-.2,0c-.2,0-.5,0-.7,0h-32.8c7.2,9.8,11.4,21.9,11.4,35,0,31.8-25.1,57.8-56.6,59.2v-24.4h0Z"/>
      <circle style="fill:var(--logo-color, #010101)" cx="116.6" cy="249.4" r="12.1"/>
    </symbol>

    <symbol id="javascript" viewBox="0 0 32 32">
      <path fill="#f7df1e" style="fill:var(--color3, #f7df1e)" d="M0 0h32v32H0V0z"/>
      <path style="fill:var(--color4, #000)" d="m8.414 26.741 2.449-1.482c.473.838.902 1.546 1.933 1.546.988 0 1.611-.387 1.611-1.89V14.69h3.007v10.267c0 3.115-1.826 4.532-4.489 4.532-2.406 0-3.802-1.246-4.511-2.75zm10.634-.322 2.448-1.418c.645 1.053 1.482 1.826 2.964 1.826 1.246 0 2.041-.623 2.041-1.482 0-1.031-.816-1.396-2.191-1.997l-.752-.323c-2.17-.923-3.609-2.083-3.609-4.532 0-2.256 1.718-3.974 4.404-3.974 1.912 0 3.287.666 4.274 2.406l-2.341 1.504c-.516-.924-1.074-1.289-1.933-1.289-.881 0-1.439.558-1.289 0 .902.558 1.268 1.847 1.826l.752.322c2.556 1.096 3.995 2.212 3.995 4.726 0 2.707-2.127 4.189-4.983 4.189-2.792 0-4.597-1.332-5.477-3.072z"/>
    </symbol>
  </defs>
</svg>